<?xml version="1.0" standalone="no"?>
<!DOCTYPE svg PUBLIC "-//W3C//DTD SVG 20010904//EN"
 "http://www.w3.org/TR/2001/REC-SVG-20010904/DTD/svg10.dtd">
<svg version="1.0" xmlns="http://www.w3.org/2000/svg"
 width="500.000000pt" height="500.000000pt" viewBox="0 0 500.000000 500.000000"
 preserveAspectRatio="xMidYMid meet">
<metadata>
Created by potrace 1.11, written by Peter Selinger 2001-2013
</metadata>
<g transform="translate(0.000000,500.000000) scale(0.100000,-0.100000)"
fill="#000000" stroke="none">
<path d="M2405 4610 c5 -8 -6 -11 -37 -10 -39 2 -103 -4 -167 -15 -21 -4 -73
-12 -121 -18 -8 -2 -20 -6 -26 -9 -6 -4 -29 -9 -52 -10 -22 -2 -38 -5 -36 -7
4 -4 -120 -43 -167 -53 -8 -2 -16 -5 -19 -8 -3 -3 -32 -16 -65 -29 -88 -35
-251 -117 -301 -151 -23 -17 -46 -30 -49 -30 -4 0 -20 -10 -35 -22 -16 -13
-45 -34 -65 -48 -42 -29 -38 -26 -130 -105 -84 -73 -165 -153 -225 -225 -25
-30 -52 -61 -60 -70 -8 -9 -19 -24 -25 -33 -5 -8 -35 -53 -66 -99 -31 -45 -65
-99 -75 -118 -11 -19 -21 -37 -24 -40 -8 -8 -77 -153 -85 -177 -3 -13 -10 -23
-14 -23 -4 0 -8 -6 -8 -12 0 -7 -19 -69 -42 -138 -40 -123 -47 -144 -58 -205
-3 -16 -7 -37 -8 -45 -2 -8 -4 -21 -4 -28 -1 -7 -4 -11 -8 -9 -5 3 -8 -14 -9
-36 0 -68 -16 -211 -23 -222 -7 -9 -7 -31 -1 -37 7 -8 5 -128 -3 -128 -4 0 -5
-5 -2 -11 7 -10 9 -26 20 -154 7 -89 13 -129 41 -265 9 -47 22 -91 28 -99 9
-12 8 -13 -4 -6 -12 7 -13 6 -3 -6 6 -8 23 -50 38 -94 34 -101 91 -235 127
-300 16 -27 34 -61 41 -75 6 -14 14 -27 17 -30 10 -10 40 -60 36 -60 -3 0 6
-12 19 -26 14 -15 25 -33 25 -40 0 -8 5 -14 10 -14 6 0 18 -16 27 -35 9 -19
20 -35 23 -35 4 0 28 -26 53 -57 25 -32 72 -86 105 -120 33 -34 59 -63 58 -65
0 -2 1 -2 3 0 9 5 50 -40 47 -52 -2 -6 -1 -8 1 -4 3 4 15 0 29 -8 13 -9 21
-21 17 -28 -3 -6 -3 -8 2 -4 4 4 42 -19 84 -51 42 -32 100 -73 129 -90 28 -18
52 -38 52 -44 0 -5 3 -7 7 -4 3 4 20 -2 37 -12 84 -52 247 -125 369 -166 75
-25 143 -45 152 -45 9 0 14 -3 12 -7 -3 -5 18 -9 46 -11 28 -1 53 -5 56 -10 3
-4 15 -7 26 -8 11 0 40 -4 65 -7 227 -33 490 -28 705 11 107 20 300 73 352 97
17 8 34 15 38 15 3 0 25 9 49 19 23 11 48 21 56 23 8 2 17 6 20 9 3 4 28 18
55 31 28 14 79 42 115 63 36 21 70 38 77 38 7 0 10 4 7 8 -2 5 10 16 28 25 18
9 35 20 38 24 3 3 30 25 61 47 31 23 63 48 71 57 9 8 18 12 22 9 3 -4 6 -1 6
5 0 6 7 18 16 27 13 13 19 13 33 3 13 -10 14 -10 4 1 -10 11 1 27 54 80 36 36
69 65 74 64 5 -2 8 1 6 6 -1 5 9 21 23 37 63 72 200 264 238 334 72 131 162
335 162 367 0 7 4 13 10 13 5 0 7 6 4 14 -3 8 -1 17 5 21 6 3 11 16 11 29 0
12 3 26 7 30 4 3 8 14 9 24 1 9 5 27 8 39 19 72 42 208 52 298 8 80 13 385 6
399 -3 5 -6 25 -7 45 -2 32 -11 99 -20 156 -2 11 -6 31 -10 45 -3 14 -8 34
-10 45 -2 11 -12 53 -23 93 -10 39 -16 72 -13 72 3 0 1 4 -4 8 -6 4 -16 25
-23 46 -9 31 -9 43 1 55 11 14 10 14 -5 2 -13 -10 -18 -10 -18 -1 0 6 -7 28
-16 48 -9 21 -20 46 -25 57 -20 46 -32 80 -31 88 1 4 -2 7 -6 7 -5 0 -24 30
-43 68 -19 37 -36 69 -39 72 -12 11 -40 60 -35 60 3 0 -6 12 -19 28 -14 15
-41 51 -61 80 -20 29 -46 65 -58 79 -35 41 -110 125 -134 149 -12 12 -19 25
-15 30 4 4 2 4 -5 1 -6 -4 -20 3 -30 15 -10 13 -36 39 -58 57 -22 19 -39 39
-38 43 2 4 0 7 -5 6 -15 -4 -52 23 -46 34 4 6 3 8 -4 4 -6 -3 -15 2 -21 11 -6
10 -11 15 -11 10 0 -6 -101 62 -137 93 -7 5 -14 10 -17 10 -2 0 -33 17 -67 39
-35 21 -74 41 -87 45 -12 4 -19 12 -16 18 4 6 2 8 -3 5 -14 -9 -65 17 -55 28
4 5 2 5 -5 1 -6 -3 -49 9 -95 28 -46 18 -101 39 -123 46 -22 7 -44 15 -50 18
-5 3 -21 7 -34 8 -14 2 -27 8 -29 14 -2 5 -7 8 -12 5 -11 -7 -111 15 -106 23
2 4 -17 8 -42 9 -26 1 -58 4 -72 6 -14 3 -40 5 -58 6 -18 0 -31 4 -29 9 3 4
-26 6 -64 5 -41 -1 -69 2 -69 8 0 6 -5 7 -11 3 -17 -10 -89 -11 -95 -2 -3 5
-11 5 -17 1 -17 -11 -49 -11 -71 0 -13 6 -16 6 -11 -3z"/>
</g>
</svg>
