<?xml version="1.0" standalone="no"?>
<!DOCTYPE svg PUBLIC "-//W3C//DTD SVG 20010904//EN"
 "http://www.w3.org/TR/2001/REC-SVG-20010904/DTD/svg10.dtd">
<svg version="1.0" xmlns="http://www.w3.org/2000/svg"
 width="500.000000pt" height="500.000000pt" viewBox="0 0 500.000000 500.000000"
 preserveAspectRatio="xMidYMid meet">
<metadata>
Created by potrace 1.11, written by Peter Selinger 2001-2013
</metadata>
<g transform="translate(0.000000,500.000000) scale(0.100000,-0.100000)"
fill="#000000" stroke="none">
<path d="M2295 4904 c-598 -63 -1097 -295 -1501 -698 -367 -368 -600 -830
-681 -1356 -25 -161 -25 -529 0 -690 81 -526 314 -988 681 -1356 368 -367 830
-600 1356 -681 161 -25 529 -25 690 0 526 81 988 314 1356 681 370 371 598
825 681 1356 25 161 25 528 0 690 -81 526 -314 988 -681 1356 -366 365 -831
600 -1346 679 -101 16 -467 28 -555 19z m693 -936 c17 -17 17 -2459 0 -2476
-17 -17 -429 -17 -446 0 -17 17 -17 2459 0 2476 17 17 429 17 446 0z m610
-580 c17 -17 17 -1879 0 -1896 -17 -17 -429 -17 -446 0 -17 17 -17 1879 0
1896 17 17 429 17 446 0z m-1230 -290 c17 -17 17 -1589 0 -1606 -17 -17 -429
-17 -446 0 -17 17 -17 1589 0 1606 17 17 429 17 446 0z m-610 -310 c17 -17 17
-1279 0 -1296 -17 -17 -429 -17 -446 0 -17 17 -17 1279 0 1296 17 17 429 17
446 0z m2450 -70 c17 -17 17 -1209 0 -1226 -17 -17 -429 -17 -446 0 -17 17
-17 1209 0 1226 17 17 429 17 446 0z m-3060 -80 c17 -17 17 -1129 0 -1146 -17
-17 -429 -17 -446 0 -17 17 -17 1129 0 1146 17 17 429 17 446 0z"/>
</g>
</svg>
